<?xml version="1.0" standalone="no"?>
<!DOCTYPE svg PUBLIC "-//W3C//DTD SVG 20010904//EN"
 "http://www.w3.org/TR/2001/REC-SVG-20010904/DTD/svg10.dtd">
<svg version="1.0" xmlns="http://www.w3.org/2000/svg"
 width="216.000000pt" height="216.000000pt" viewBox="0 0 216.000000 216.000000"
 preserveAspectRatio="xMidYMid meet">
<metadata>
Created by potrace 1.11, written by Peter Selinger 2001-2013
</metadata>
<g transform="translate(0.000000,216.000000) scale(0.100000,-0.100000)"
fill="#000000" stroke="none">
<path d="M689 2063 c-129 -143 -282 -396 -338 -562 -39 -115 -50 -189 -47
-311 5 -162 51 -296 140 -413 20 -26 34 -47 31 -47 -6 0 84 -82 131 -118 180
-138 449 -183 674 -110 67 21 175 73 198 95 7 7 17 13 21 13 12 0 139 129 169
173 140 203 172 436 97 690 -45 152 -170 369 -318 554 -57 71 -48 73 -138 -20
-109 -112 -139 -228 -99 -375 24 -89 44 -128 171 -347 88 -153 149 -279 138
-289 -2 -2 -60 -34 -129 -71 -69 -37 -145 -81 -170 -98 -51 -34 -160 -145
-157 -160 5 -23 -19 -14 -31 12 -30 67 -133 149 -307 241 -156 82 -146 72
-125 128 22 57 63 134 140 262 220 366 229 523 42 713 l-67 68 -26 -28z m144
-202 c50 -110 19 -245 -103 -453 -68 -115 -175 -315 -193 -359 -10 -25 -112
92 -137 158 -36 93 -35 167 4 277 35 98 124 276 138 276 4 0 8 5 8 11 0 13 92
147 124 182 13 14 26 33 30 43 6 16 14 12 58 -35 28 -30 60 -75 71 -100z m615
72 c124 -163 214 -327 263 -478 40 -120 21 -229 -55 -333 -71 -97 -77 -96
-124 2 -22 46 -71 137 -110 202 -105 181 -129 227 -152 301 -41 132 -18 233
75 338 22 24 41 45 42 45 1 0 29 -35 61 -77z m-982 -913 l48 -44 -1 -79 c-1
-44 3 -91 8 -104 16 -43 4 -36 -33 19 -76 114 -111 198 -124 297 l-6 46 30
-45 c16 -25 51 -65 78 -90z m1278 98 c-22 -118 -80 -254 -139 -323 l-34 -40
14 46 c7 26 12 74 9 112 l-3 65 44 36 c24 20 58 59 76 86 18 28 34 50 35 50 2
0 1 -15 -2 -32z m-1009 -268 c114 -61 197 -122 229 -169 31 -44 55 -104 56
-138 0 -20 -4 -22 -47 -17 -119 11 -206 50 -290 128 -70 65 -114 145 -117 213
-4 73 0 77 48 50 22 -13 77 -43 121 -67z m803 23 c-6 -80 -31 -134 -90 -196
-86 -89 -185 -136 -321 -151 l-49 -6 7 33 c20 100 95 189 214 257 172 98 227
128 235 129 5 1 7 -29 4 -66z"/>
<path d="M427 543 c-4 -3 -7 -15 -7 -25 0 -12 -7 -18 -25 -18 -18 0 -23 -4
-19 -15 4 -8 15 -15 25 -15 18 0 23 -14 20 -52 -2 -18 16 -34 27 -24 3 4 5 22
4 41 -3 35 -2 35 38 35 29 0 40 4 40 15 0 11 -11 15 -40 15 -36 0 -40 3 -40
25 0 24 -10 32 -23 18z"/>
<path d="M923 419 c-22 -8 -23 -13 -23 -123 0 -118 2 -124 44 -132 40 -7 47
14 44 136 -3 102 -5 113 -23 120 -11 4 -30 4 -42 -1z m32 -126 c-3 -114 -2
-113 -15 -93 -5 8 -10 54 -10 103 0 67 3 87 14 87 10 0 13 -21 11 -97z"/>
<path d="M1169 382 l-1 -47 -10 43 c-7 32 -14 42 -26 40 -15 -3 -17 -19 -17
-126 0 -110 2 -122 17 -122 14 0 18 9 19 43 l1 42 11 -46 c9 -35 16 -45 27
-40 12 5 15 28 15 128 0 108 -2 123 -17 127 -15 3 -18 -3 -19 -42z"/>
<path d="M1560 410 c-24 -24 -19 -56 17 -127 22 -43 25 -56 15 -75 -10 -22
-11 -22 -11 10 -1 33 -11 41 -29 20 -18 -22 -3 -66 25 -73 57 -14 70 52 28
135 -23 45 -35 114 -17 96 7 -7 8 -11 11 -37 1 -8 6 -7 16 1 22 18 15 51 -13
61 -17 6 -27 4 -42 -11z"/>
<path d="M483 404 c-3 -9 -6 -32 -5 -51 0 -18 1 -65 1 -103 1 -64 3 -71 23
-79 35 -13 58 7 58 51 0 29 -3 36 -15 32 -9 -4 -15 -19 -15 -37 0 -17 -3 -27
-7 -23 -10 10 -11 196 -1 202 4 3 8 -11 8 -30 0 -28 3 -34 16 -29 10 4 14 16
12 42 -3 33 -6 36 -36 39 -23 2 -34 -1 -39 -14z"/>
<path d="M690 296 c0 -105 2 -126 15 -126 11 0 15 12 15 50 0 28 5 50 10 50 6
0 10 -22 10 -50 0 -38 4 -50 15 -50 13 0 15 18 13 123 l-3 122 -37 3 -38 3 0
-125z m50 49 c0 -25 -4 -45 -10 -45 -5 0 -10 20 -10 45 0 25 5 45 10 45 6 0
10 -20 10 -45z"/>
<path d="M1330 300 c0 -116 1 -121 23 -129 24 -9 48 -4 59 13 4 6 8 62 8 124
0 93 -3 112 -15 112 -17 0 -17 1 -16 -105 0 -92 -5 -128 -19 -120 -6 3 -10 55
-10 116 0 90 -3 109 -15 109 -13 0 -15 -20 -15 -120z"/>
<path d="M1660 180 l0 -40 -40 0 c-29 0 -40 -4 -40 -15 0 -11 11 -15 40 -15
36 0 40 -2 40 -25 0 -16 6 -25 15 -25 9 0 15 9 15 25 0 20 5 25 25 25 16 0 25
6 25 15 0 9 -9 15 -25 15 -22 0 -25 4 -25 40 0 29 -4 40 -15 40 -11 0 -15 -11
-15 -40z"/>
</g>
</svg>
